<?xml version="1.0" ?><svg style="enable-background:new 0 0 512 512;" version="1.1" viewBox="0 0 512 512" xml:space="preserve" xmlns="http://www.w3.org/2000/svg" xmlns:xlink="http://www.w3.org/1999/xlink"><style type="text/css">
	.st0{fill:#FFFFFF;}
	.st1{fill:#E6E7E8;}
	.st2{fill:#3E4D6C;}
	.st3{fill:#0795FE;}
</style><g id="_x35_0_exclamation_mark"/><g id="_x34_9_gears"/><g id="_x34_8_tel"/><g id="_x34_7_call_center"/><g id="_x34_6_arrow_right"/><g id="_x34_5_partner"/><g id="_x34_4_developer"/><g id="_x34_3_easy"/><g id="_x34_2_tax"/><g id="_x34_1_government"/><g id="_x34_0_microsoft_edge"/><g id="_x33_9_category"/><g id="_x33_8_projects"/><g id="_x33_7_external_hard_drive"/><g id="_x33_6_quote"/><g id="_x33_5_netflix"/><g id="_x33_4_custom"/><g id="_x33_3_clear"/><g id="_x33_2_png"/><g id="_x33_1_risk"/><g id="_x33_0_sort"/><g id="_x32_9_survey"/><g id="_x32_8_request"/><g id="_x32_7_log"><g><g><path class="st0" d="M396,444H116c-7.7,0-14-6.3-14-14V82c0-7.7,6.3-14,14-14h193.4L410,169v261C410,437.7,403.7,444,396,444z"/><path class="st3" d="M410,169h-86.6c-7.7,0-14-6.3-14-14V68L410,169z"/><path class="st1" d="M151,134.6L142,68h-26c-7.7,0-14,6.3-14,14v348c0,7.7,6.3,14,14,14h280c7.7,0,14-6.3,14-14v-26l0,0     C274.2,380.2,169.5,271.2,151,134.6z"/><path class="st2" d="M396,460H116c-16.5,0-30-13.5-30-30V82c0-16.5,13.5-30,30-30h153.7v32H118v344h276V200.1h32V430     C426,446.5,412.5,460,396,460z"/></g><g><polygon class="st3" points="173.6,236.6 153,236.6 153,319.4 204.2,319.4 204.2,300.3 173.6,300.3    "/><path class="st3" d="M244.2,235.4c-22.9,0-38.9,17.8-38.9,43.2c0,24.7,15.6,42,37.8,42c19.4,0,38.9-13.4,38.9-43.3     C282,252.6,266.4,235.4,244.2,235.4z M243.6,301.7c-11.7,0-17.1-12.1-17.1-23.3c0-11.1,4.5-24.1,17.2-24.1     c11.7,0,17.1,12.1,17.1,23.4C260.9,289.6,255.5,301.7,243.6,301.7z"/><path class="st3" d="M324.1,270.5v18.8h14.5v11.4c-1.4,0.2-3.5,0.5-6.6,0.5c-13.7,0-21.9-8.7-21.9-23.1c0-14.4,8.6-23,23-23     c6.8,0,10.8,1.4,13.5,2.6l5.9,2.6l5.4-18.4l-4.4-2.1c-3.9-1.9-11.2-3.9-20.3-3.9c-26.4,0-44.3,17.1-44.4,42.6     c0,12.3,4.3,23.5,11.7,30.7c7.8,7.4,17.8,11,30.7,11c9.9,0,18.5-2.3,23.9-4.3l3.8-1.4v-44.1H324.1z"/></g></g></g><g id="_x32_6_right_arrow"/><g id="_x32_5_load"/><g id="_x32_4_book"/><g id="_x32_3_outlook"/><g id="_x32_2_fax"/><g id="_x32_1_playstore"/><g id="_x32_0_progress"/><g id="_x31_9_brand"/><g id="_x31_8_dance"/><g id="_x31_7_github"/><g id="_x31_6_correct"/><g id="_x31_5_speak"/><g id="_x31_4_parking"/><g id="_x31_3_api"/><g id="_x31_2_exclamation"/><g id="_x31_1_cost"/><g id="_x31_0_subscribe"/><g id="_x30_9_maps"/><g id="_x30_8_pig"/><g id="_x30_7_running"/><g id="_x30_6_down_arrow"/><g id="_x30_5_status"/><g id="_x30_4_arrow_down"/><g id="_x30_3_reset"/><g id="_x30_2_inventory"/><g id="_x30_1_light_bulb"/></svg>